<svg xmlns="http://www.w3.org/2000/svg" width="400" height="240" viewBox="0 0 400 240">
    <defs>
        <linearGradient id="a" x1="62.031%" x2="40.509%" y1="77.078%" y2="32.547%">
            <stop offset="0%" stop-color="#F9AE8B"/>
            <stop offset="100%" stop-color="#FCC7AA"/>
        </linearGradient>
        <linearGradient id="b" x1="17.185%" x2="75.395%" y1="42.85%" y2="42.85%">
            <stop offset="0%" stop-color="#F9AE8B"/>
            <stop offset="100%" stop-color="#FCC7AA"/>
        </linearGradient>
        <linearGradient id="c" x1="48.411%" x2="53.713%" y1="51.33%" y2="132.029%">
            <stop offset="0%" stop-color="#F9AE8B"/>
            <stop offset="100%" stop-color="#FCC7AA"/>
        </linearGradient>
        <linearGradient id="d" x1="102.144%" x2="52.68%" y1="87.131%" y2="48.858%">
            <stop offset="0%" stop-color="#F9AE8B"/>
            <stop offset="100%" stop-color="#FCC7AA"/>
        </linearGradient>
    </defs>
    <g fill="none" fill-rule="evenodd">
        <path fill="#FFF" d="M0 240h400V0H0z"/>
        <path fill="#E1E5F1" d="M294.227 215.306H95.081a5.721 5.721 0 0 1-5.72-5.72V44.212c0-3.16 2.56-5.721 5.72-5.721h199.146a5.72 5.72 0 0 1 5.72 5.72v165.373a5.72 5.72 0 0 1-5.72 5.721"/>
        <path stroke="#FDFDF3" stroke-width="1.941" d="M89.36 59.768h210.587M294.227 215.306H95.081a5.721 5.721 0 0 1-5.72-5.72V44.212c0-3.16 2.56-5.721 5.72-5.721h199.146a5.72 5.72 0 0 1 5.72 5.72v165.373a5.72 5.72 0 0 1-5.72 5.721z"/>
        <path stroke="#FDFDF3" stroke-width="1.941" d="M110.132 49.346a2.969 2.969 0 1 1-5.938 0 2.969 2.969 0 0 1 5.938 0zM121.67 49.346a2.968 2.968 0 1 1-5.937.001 2.968 2.968 0 0 1 5.937 0zM133.208 49.346a2.968 2.968 0 1 1-5.937.001 2.968 2.968 0 0 1 5.937 0z"/>
        <path fill="#FACACA" d="M65.99 75.453H16.056c-1.066 0-1.93-1.173-1.93-2.62 0-1.448.864-2.621 1.93-2.621H65.99c1.065 0 1.93 1.173 1.93 2.62 0 1.448-.865 2.621-1.93 2.621"/>
        <path fill="#F27C7B" d="M216.804 5.382H172.62a2.683 2.683 0 1 1 0-5.366h44.183a2.683 2.683 0 1 1 0 5.366"/>
        <path fill="#E1E5F1" d="M52.918 110.039h-5.202a5.007 5.007 0 0 1-5.007-5.007v-4.724a5.007 5.007 0 0 1 5.007-5.007h5.202a5.007 5.007 0 0 1 5.007 5.007v4.724a5.007 5.007 0 0 1-5.007 5.007"/>
        <path fill="#F0514F" d="M280.292 239.994h-2.838a2.731 2.731 0 0 1-2.731-2.732v-2.577a2.731 2.731 0 0 1 2.73-2.732h2.84a2.731 2.731 0 0 1 2.73 2.732v2.577a2.731 2.731 0 0 1-2.73 2.732"/>
        <path fill="#4258AA" d="M356.581 69.48h-2.838a2.731 2.731 0 0 1-2.731-2.732v-2.577a2.731 2.731 0 0 1 2.73-2.732h2.84a2.732 2.732 0 0 1 2.731 2.732v2.577a2.732 2.732 0 0 1-2.732 2.732"/>
        <path fill="#E1E5F1" d="M59.862 192.855l-21.479 11.127 6.188 2.997-7.684 9.185 5.996 4.91 7.423-9.865 4.974 5.335z"/>
        <path fill="#F27C7B" d="M134.65 239.146h-25.095a3.365 3.365 0 0 1 0-6.73h25.096a3.366 3.366 0 0 1 0 6.73M130.934 183.44H28.215a8.283 8.283 0 0 1-8.283-8.283V139.78a8.284 8.284 0 0 1 8.283-8.283h102.719a8.284 8.284 0 0 1 8.283 8.283v35.377a8.283 8.283 0 0 1-8.283 8.283"/>
        <path stroke="#FDFDF3" stroke-width="1.477" d="M34.398 141.142a2.259 2.259 0 1 1-4.517 0 2.259 2.259 0 0 1 4.517 0zM43.176 141.142a2.259 2.259 0 1 1-4.517 0 2.259 2.259 0 0 1 4.517 0zM51.954 141.142a2.259 2.259 0 1 1-4.517 0 2.259 2.259 0 0 1 4.517 0zM19.932 149.692h119.284"/>
        <path fill="#F0514F" d="M322.861 65.564H279.93c-5.409 0-9.792-4.384-9.792-9.792v-33.65c0-5.407 4.383-9.791 9.792-9.791h42.931c5.408 0 9.792 4.384 9.792 9.792v33.65c0 5.407-4.384 9.791-9.792 9.791"/>
        <path fill="#FDFDF3" d="M297.45 25.845c-4.607 0-8.355 3.748-8.355 8.355s3.748 8.355 8.355 8.355 8.354-3.748 8.354-8.355-3.747-8.355-8.354-8.355m0 19.158c-5.957 0-10.803-4.846-10.803-10.803 0-5.957 4.846-10.803 10.803-10.803 5.956 0 10.802 4.846 10.802 10.803 0 5.957-4.846 10.803-10.802 10.803"/>
        <path fill="#FDFDF3" d="M306.535 45.04l-3.189-3.19 1.73-1.73 3.19 3.189z"/>
        <path fill="#FDFDF3" d="M310.33 43.276l5.464 5.464a2.312 2.312 0 0 1 0 3.271l-.556.557a2.313 2.313 0 0 1-3.272 0l-5.464-5.464a2.313 2.313 0 0 1 0-3.272l.556-.556a2.314 2.314 0 0 1 3.272 0"/>
        <path fill="#C6CDE5" d="M68.106 48.875h-21.73c-6.245 0-11.307-5.062-11.307-11.306V20.032c0-6.244 5.062-11.307 11.307-11.307h21.73c6.245 0 11.307 5.063 11.307 11.307v17.537c0 6.244-5.062 11.306-11.307 11.306"/>
        <path fill="#FDFDF3" d="M57.241 21.486a6.579 6.579 0 0 0-6.57 6.57 6.579 6.579 0 0 0 6.57 6.571 6.579 6.579 0 0 0 6.57-6.571 6.579 6.579 0 0 0-6.57-6.57m0 15.964c-5.18 0-9.393-4.214-9.393-9.394s4.213-9.393 9.393-9.393c5.18 0 9.393 4.214 9.393 9.393 0 5.18-4.213 9.394-9.393 9.394"/>
        <path stroke="#FDFDF3" stroke-width="4.522" d="M62.778 21.486L52.006 34.627"/>
        <path fill="#7181BF" d="M363.406 190.123h-94.543c-5.764 0-10.438-4.672-10.438-10.436v-69.175c0-5.765 4.674-10.437 10.438-10.437h94.543c5.764 0 10.437 4.672 10.437 10.437v69.175c0 5.764-4.673 10.436-10.437 10.436"/>
        <path fill="#FDFDF3" d="M287.271 155.275v-8.241l-5.92 8.24h5.92zm0 6.4h-13.24l-.64-5.84 12.12-16.721h9.52v16.16h3.322v6.4h-3.321v4.881h-7.76v-4.88zM321.111 152.794c0-4.2-2.04-7.16-4.96-7.16s-4.96 2.96-4.96 7.16 2.04 7.201 4.96 7.201 4.96-3 4.96-7.2m-17.92 0c0-8.32 5.36-14.202 12.96-14.202 7.6 0 12.96 5.881 12.96 14.201 0 8.361-5.36 14.241-12.96 14.241-7.6 0-12.96-5.88-12.96-14.24M347.39 155.275v-8.241l-5.92 8.24h5.92zm0 6.4h-13.24l-.641-5.84 12.122-16.721h9.52v16.16h3.32v6.4h-3.32v4.881h-7.76v-4.88z"/>
        <path stroke="#FDFDF3" stroke-width="1.43" d="M272.558 108.576a2.188 2.188 0 1 1-4.376 0 2.188 2.188 0 0 1 4.376 0zM281.061 108.576a2.188 2.188 0 1 1-4.377 0 2.188 2.188 0 0 1 4.377 0zM289.563 108.576a2.188 2.188 0 1 1-4.376 0 2.188 2.188 0 0 1 4.376 0zM258.426 117.7h115.417"/>
        <g fill-rule="nonzero">
            <path fill="#123095" d="M235.8 214.082H201c0-2.4-1.2-4.8-1.2-7.2 0-1.2-1.2-2.4-1.2-2.4-1.2 0-2.4 4.8-2.4 9.6h-5.96c-15.04-.282-14.799 0-22.84-.282 0-15.6 1.2-19.2 4.8-28.8 0-1.2 1.2-2.4 1.2-2.4 3.6-2.4 14.4-3.6 26.4-3.6h8.4c10.8 0 20.4 1.2 21.6 1.2-1.2 0 3.6 9.882 6 33.882z"/>
            <path fill="#35396F" d="M202.2 205.4c0-1.2-1.2-2.4-1.2-2.4-1.2 0-2.4 4.8-2.4 9.6-2.4 1.2-3.6 1.2-6 1.2 3.6-12 3.6-24 6-24 3.6 2.4 3.6 15.6 3.6 15.6z" opacity=".15"/>
            <path fill="#35396F" d="M227.4 213.8c0-12-2.4-22.8-12-21.6-18 0-32.4-2.4-33.6-2.4l2.4-1.2 9.6-3.6 13.2-4.8c10.8 0 20.4 1.2 21.6 1.2 0 0 3.6 6.06 4.8 28.86-2.625.28-4.8 3.54-6 3.54z" opacity=".15"/>
            <g>
                <path fill="#0D2168" d="M156.6 129.8s-1.2 9.6-2.4 16.8c0 6 1.2 10.8 7.2 12 6 0 10.8-6 12-10.8L171 131l-14.4-1.2z"/>
                <path fill="#FDFDF3" d="M202.2 189.8c-10.8 0-18 0-22.8-1.2-8.4-2.4-10.8-6-9.6-9.6 1.2-6 4.8-20.4 1.2-37.2l-10.8-24s3.6-13.2 14.4-18c2.4-1.2 3.6-1.2 4.8-2.4l9.6-4.8h10.8s1.2 0 4.8 1.2c6 1.2 15.6 4.8 20.4 9.6v19.2c0 18 0 42 2.4 48 4.8 9.6 2.4 18-25.2 19.2z"/>
                <path fill="#F2E4DB" d="M202.2 189.8c-10.8 0-18 0-22.8-1.2 12 1.2 25.2-7.2 21.6-19.2-4.8-18-26.4-27.6-26.4-27.6s0-18 24-10.8c24 7.2 15.6-14.4 15.6-14.4l10.8 7.2c0 18 0 42 2.4 48 4.8 8.4 2.4 16.8-25.2 18z" opacity=".5"/>
                <path fill="#7181BF" d="M204.6 93.8c-4.8 10.8-12 18-20.4 16.8-7.2-1.2-6-9.6-6-12l9.6-4.8h10.8c2.4-1.2 3.6 0 6 0z"/>
                <g>
                    <g transform="translate(156.6 117.8)">
                        <path fill="#ACB8C1" d="M35.2 26.4H7.6c-1.2 0-2.4-1.2-2.4-2.4L.4 3.6C.4 2.4 1.6 0 2.8 0h26.4c1.2 0 2.4 1.2 2.4 2.4l4.8 20.4c1.2 1.2 0 3.6-1.2 3.6z"/>
                        <path fill="#F2F6F9" d="M32.4 26.4H7.2c-1.2 0-2.4-1.2-2.4-2.4L0 3.6C0 2.4 1.2 0 2.4 0h25.2C28.8 0 30 1.2 30 2.4l4.8 20.4c1.2 1.2 0 3.6-2.4 3.6z"/>
                        <ellipse cx="16.666" cy="13.276" fill="#F27C7B" rx="2.4" ry="3.6" transform="rotate(-15.473 16.666 13.276)"/>
                    </g>
                    <path fill="url(#a)" d="M48 30l-3.6-2.4s-6-9.6-7.2-8.4c-1.2 0 0 6 0 7.2 0 0-10.8 0-12-1.2-1.2 0-4.8-1.2-1.2 3.6 3.6 4.8 6 8.4 10.8 8.4H42l3.6 1.2L48 30z" transform="translate(153 102.2)"/>
                    <path fill="#163190" d="M215.4 121.4s6 16.8 2.4 16.8-18-7.2-18-7.2l-4.8 9.6s25.2 19.2 32.4 16.8c7.2-2.4 9.6-9.6 6-30-3.6-19.2-8.4-25.2-13.2-25.2-4.8 1.2-9.6 6-4.8 19.2z"/>
                    <path fill="#7181BF" d="M207 134.6s-3.6 15.6-6 15.6c-1.2 0-6-9.6-6-9.6l4.8-9.6s2.4 0 7.2 3.6z"/>
                    <path fill="url(#b)" d="M7.2 36s3.6-2.4 2.4-7.2C8.4 25.2 8.4 24 7.2 24s-2.4-1.2-3.6 0c-1.2 0 0 9.6 3.6 12" transform="translate(153 102.2)"/>
                </g>
            </g>
            <g>
                <path fill="#0D2168" d="M197.4 87.8s2.4-9.6 2.4-18-1.2-13.2-4.8-12c0 0 2.4-8.4-8.4-9.6-10.8-1.2-28.8 1.2-21.6 13.2 0 0-3.6 1.2-1.2 7.2 1.2 6 7.2 9.6 7.2 9.6l26.4 9.6z"/>
                <path fill="url(#c)" d="M32.4 32.4s1.2 7.2 6 14.4c0 0-6 13.2-14.4 10.8-6-1.2 0-7.2-3.6-12l12-13.2z" transform="translate(162.6 47)"/>
                <path fill="url(#d)" d="M4.8 19.2s4.8 27.6 14.4 27.6c9.6 0 13.2-10.8 13.2-15.6 0 0 3.6-1.2 3.6-6s-3.6-3.6-4.8 0c0 0-2.4 0-2.4-6v-4.8s-2.4 0-9.6 4.8c-8.4 6-13.2 2.4-14.4 0z" transform="translate(162.6 47)"/>
            </g>
        </g>
    </g>
</svg>
